<svg id="visual" viewBox="0 0 900 600" width="900" height="600" xmlns="http://www.w3.org/2000/svg" xmlns:xlink="http://www.w3.org/1999/xlink" version="1.1"><g stroke-width="1" stroke-linejoin="bevel"><path d="M483 301L550 297L517 258Z" fill="#1c1f1f" stroke="#006a6a"></path><path d="M550 297L589 283L517 258Z" fill="#101414" stroke="#006a6a"></path><path d="M517 258L449 235L483 301Z" fill="#161a1a" stroke="#006a6a"></path><path d="M589 283L583 225L517 258Z" fill="#101414" stroke="#006a6a"></path><path d="M517 258L543 168L449 235Z" fill="#2a2e2e" stroke="#006a6a"></path><path d="M449 235L405 273L483 301Z" fill="#252828" stroke="#006a6a"></path><path d="M415 397L491 412L483 301Z" fill="#191c1c" stroke="#006a6a"></path><path d="M483 301L491 412L550 297Z" fill="#161a1a" stroke="#006a6a"></path><path d="M550 297L599 406L589 283Z" fill="#101414" stroke="#006a6a"></path><path d="M583 225L543 168L517 258Z" fill="#2a2e2e" stroke="#006a6a"></path><path d="M449 235L394 253L405 273Z" fill="#161a1a" stroke="#006a6a"></path><path d="M336 128L394 253L449 235Z" fill="#2a2e2e" stroke="#006a6a"></path><path d="M491 412L599 406L550 297Z" fill="#1c1f1f" stroke="#006a6a"></path><path d="M589 283L636 211L583 225Z" fill="#161a1a" stroke="#006a6a"></path><path d="M583 225L580 154L543 168Z" fill="#2d3131" stroke="#006a6a"></path><path d="M663 345L636 211L589 283Z" fill="#191c1c" stroke="#006a6a"></path><path d="M387 386L415 397L405 273Z" fill="#2a2e2e" stroke="#006a6a"></path><path d="M405 273L415 397L483 301Z" fill="#141717" stroke="#006a6a"></path><path d="M636 211L580 154L583 225Z" fill="#191c1c" stroke="#006a6a"></path><path d="M564 101L481 142L543 168Z" fill="#161a1a" stroke="#006a6a"></path><path d="M543 168L481 142L449 235Z" fill="#252828" stroke="#006a6a"></path><path d="M599 406L663 345L589 283Z" fill="#101414" stroke="#006a6a"></path><path d="M289 268L387 386L405 273Z" fill="#1c1f1f" stroke="#006a6a"></path><path d="M415 397L470 450L491 412Z" fill="#161a1a" stroke="#006a6a"></path><path d="M491 412L546 455L599 406Z" fill="#141717" stroke="#006a6a"></path><path d="M383 413L470 450L415 397Z" fill="#101414" stroke="#006a6a"></path><path d="M470 450L546 455L491 412Z" fill="#1f2222" stroke="#006a6a"></path><path d="M713 182L650 176L636 211Z" fill="#272b2b" stroke="#006a6a"></path><path d="M636 211L650 176L580 154Z" fill="#101414" stroke="#006a6a"></path><path d="M269 407L383 413L387 386Z" fill="#1f2222" stroke="#006a6a"></path><path d="M387 386L383 413L415 397Z" fill="#161a1a" stroke="#006a6a"></path><path d="M650 176L564 101L580 154Z" fill="#161a1a" stroke="#006a6a"></path><path d="M580 154L564 101L543 168Z" fill="#191c1c" stroke="#006a6a"></path><path d="M530 509L605 471L546 455Z" fill="#2d3131" stroke="#006a6a"></path><path d="M546 455L605 471L599 406Z" fill="#252828" stroke="#006a6a"></path><path d="M599 406L718 414L663 345Z" fill="#1c1f1f" stroke="#006a6a"></path><path d="M718 414L714 333L663 345Z" fill="#222525" stroke="#006a6a"></path><path d="M663 345L714 333L636 211Z" fill="#1c1f1f" stroke="#006a6a"></path><path d="M410 555L530 509L470 450Z" fill="#222525" stroke="#006a6a"></path><path d="M470 450L530 509L546 455Z" fill="#2a2e2e" stroke="#006a6a"></path><path d="M564 101L525 75L481 142Z" fill="#141717" stroke="#006a6a"></path><path d="M481 142L336 128L449 235Z" fill="#2d3131" stroke="#006a6a"></path><path d="M714 333L713 182L636 211Z" fill="#2d3131" stroke="#006a6a"></path><path d="M650 176L663 36L564 101Z" fill="#272b2b" stroke="#006a6a"></path><path d="M568 0L514 0L525 75Z" fill="#252828" stroke="#006a6a"></path><path d="M525 75L473 70L481 142Z" fill="#2a2e2e" stroke="#006a6a"></path><path d="M273 160L289 268L394 253Z" fill="#101414" stroke="#006a6a"></path><path d="M394 253L289 268L405 273Z" fill="#272b2b" stroke="#006a6a"></path><path d="M676 487L599 406L605 471Z" fill="#1c1f1f" stroke="#006a6a"></path><path d="M676 487L718 414L599 406Z" fill="#222525" stroke="#006a6a"></path><path d="M714 333L786 199L713 182Z" fill="#191c1c" stroke="#006a6a"></path><path d="M357 75L336 128L481 142Z" fill="#191c1c" stroke="#006a6a"></path><path d="M330 488L368 487L383 413Z" fill="#2d3131" stroke="#006a6a"></path><path d="M383 413L368 487L470 450Z" fill="#191c1c" stroke="#006a6a"></path><path d="M718 414L752 375L714 333Z" fill="#2a2e2e" stroke="#006a6a"></path><path d="M752 375L763 332L714 333Z" fill="#161a1a" stroke="#006a6a"></path><path d="M657 508L676 487L605 471Z" fill="#2a2e2e" stroke="#006a6a"></path><path d="M718 414L785 488L752 375Z" fill="#1f2222" stroke="#006a6a"></path><path d="M273 160L264 252L289 268Z" fill="#141717" stroke="#006a6a"></path><path d="M269 407L330 488L383 413Z" fill="#141717" stroke="#006a6a"></path><path d="M594 562L657 508L605 471Z" fill="#141717" stroke="#006a6a"></path><path d="M473 70L357 75L481 142Z" fill="#272b2b" stroke="#006a6a"></path><path d="M336 128L273 160L394 253Z" fill="#141717" stroke="#006a6a"></path><path d="M269 407L387 386L289 268Z" fill="#2a2e2e" stroke="#006a6a"></path><path d="M506 600L594 562L530 509Z" fill="#141717" stroke="#006a6a"></path><path d="M264 408L269 407L193 336Z" fill="#161a1a" stroke="#006a6a"></path><path d="M285 95L273 160L336 128Z" fill="#141717" stroke="#006a6a"></path><path d="M676 487L713 487L718 414Z" fill="#1c1f1f" stroke="#006a6a"></path><path d="M657 508L713 487L676 487Z" fill="#191c1c" stroke="#006a6a"></path><path d="M193 336L269 407L289 268Z" fill="#161a1a" stroke="#006a6a"></path><path d="M269 407L264 408L330 488Z" fill="#252828" stroke="#006a6a"></path><path d="M530 509L594 562L605 471Z" fill="#191c1c" stroke="#006a6a"></path><path d="M657 508L726 600L713 487Z" fill="#191c1c" stroke="#006a6a"></path><path d="M410 555L470 450L368 487Z" fill="#1f2222" stroke="#006a6a"></path><path d="M273 160L247 207L264 252Z" fill="#141717" stroke="#006a6a"></path><path d="M264 252L193 336L289 268Z" fill="#2a2e2e" stroke="#006a6a"></path><path d="M327 562L410 555L368 487Z" fill="#141717" stroke="#006a6a"></path><path d="M763 332L786 199L714 333Z" fill="#272b2b" stroke="#006a6a"></path><path d="M568 0L525 75L564 101Z" fill="#272b2b" stroke="#006a6a"></path><path d="M525 75L514 0L473 70Z" fill="#2d3131" stroke="#006a6a"></path><path d="M473 70L416 0L357 75Z" fill="#161a1a" stroke="#006a6a"></path><path d="M663 36L650 176L710 37Z" fill="#141717" stroke="#006a6a"></path><path d="M785 488L804 358L752 375Z" fill="#141717" stroke="#006a6a"></path><path d="M752 375L804 358L763 332Z" fill="#272b2b" stroke="#006a6a"></path><path d="M856 315L841 199L786 199Z" fill="#191c1c" stroke="#006a6a"></path><path d="M710 37L650 176L713 182Z" fill="#1c1f1f" stroke="#006a6a"></path><path d="M663 36L568 0L564 101Z" fill="#141717" stroke="#006a6a"></path><path d="M280 0L285 95L357 75Z" fill="#2a2e2e" stroke="#006a6a"></path><path d="M357 75L285 95L336 128Z" fill="#1c1f1f" stroke="#006a6a"></path><path d="M273 160L232 170L247 207Z" fill="#2d3131" stroke="#006a6a"></path><path d="M841 199L798 175L786 199Z" fill="#161a1a" stroke="#006a6a"></path><path d="M786 199L798 175L713 182Z" fill="#1f2222" stroke="#006a6a"></path><path d="M444 600L506 600L530 509Z" fill="#141717" stroke="#006a6a"></path><path d="M514 0L416 0L473 70Z" fill="#141717" stroke="#006a6a"></path><path d="M225 90L232 170L273 160Z" fill="#1f2222" stroke="#006a6a"></path><path d="M134 310L193 336L128 260Z" fill="#141717" stroke="#006a6a"></path><path d="M410 555L444 600L530 509Z" fill="#141717" stroke="#006a6a"></path><path d="M401 600L444 600L410 555Z" fill="#222525" stroke="#006a6a"></path><path d="M506 600L592 600L594 562Z" fill="#252828" stroke="#006a6a"></path><path d="M594 562L666 600L657 508Z" fill="#161a1a" stroke="#006a6a"></path><path d="M416 0L393 0L357 75Z" fill="#191c1c" stroke="#006a6a"></path><path d="M798 175L710 37L713 182Z" fill="#222525" stroke="#006a6a"></path><path d="M663 36L665 0L568 0Z" fill="#2a2e2e" stroke="#006a6a"></path><path d="M193 336L264 252L128 260Z" fill="#1f2222" stroke="#006a6a"></path><path d="M327 562L368 487L330 488Z" fill="#141717" stroke="#006a6a"></path><path d="M710 37L665 0L663 36Z" fill="#272b2b" stroke="#006a6a"></path><path d="M327 562L330 488L208 500Z" fill="#2d3131" stroke="#006a6a"></path><path d="M327 562L401 600L410 555Z" fill="#1f2222" stroke="#006a6a"></path><path d="M215 453L330 488L264 408Z" fill="#101414" stroke="#006a6a"></path><path d="M713 487L785 488L718 414Z" fill="#272b2b" stroke="#006a6a"></path><path d="M726 600L785 488L713 487Z" fill="#1f2222" stroke="#006a6a"></path><path d="M856 315L786 199L763 332Z" fill="#2a2e2e" stroke="#006a6a"></path><path d="M864 0L714 0L710 37Z" fill="#252828" stroke="#006a6a"></path><path d="M856 315L763 332L804 358Z" fill="#2a2e2e" stroke="#006a6a"></path><path d="M900 336L856 315L804 358Z" fill="#141717" stroke="#006a6a"></path><path d="M178 352L215 453L264 408Z" fill="#252828" stroke="#006a6a"></path><path d="M592 600L666 600L594 562Z" fill="#252828" stroke="#006a6a"></path><path d="M134 310L178 352L193 336Z" fill="#1f2222" stroke="#006a6a"></path><path d="M193 336L178 352L264 408Z" fill="#191c1c" stroke="#006a6a"></path><path d="M849 111L710 37L798 175Z" fill="#252828" stroke="#006a6a"></path><path d="M710 37L714 0L665 0Z" fill="#2d3131" stroke="#006a6a"></path><path d="M280 0L225 90L285 95Z" fill="#1c1f1f" stroke="#006a6a"></path><path d="M285 95L225 90L273 160Z" fill="#1f2222" stroke="#006a6a"></path><path d="M128 260L264 252L247 207Z" fill="#2a2e2e" stroke="#006a6a"></path><path d="M215 453L208 500L330 488Z" fill="#1c1f1f" stroke="#006a6a"></path><path d="M120 444L208 500L215 453Z" fill="#1c1f1f" stroke="#006a6a"></path><path d="M666 600L726 600L657 508Z" fill="#141717" stroke="#006a6a"></path><path d="M393 0L280 0L357 75Z" fill="#252828" stroke="#006a6a"></path><path d="M726 600L817 521L785 488Z" fill="#1c1f1f" stroke="#006a6a"></path><path d="M900 469L900 336L804 358Z" fill="#161a1a" stroke="#006a6a"></path><path d="M900 128L849 111L841 199Z" fill="#1c1f1f" stroke="#006a6a"></path><path d="M841 199L849 111L798 175Z" fill="#141717" stroke="#006a6a"></path><path d="M178 0L186 101L225 90Z" fill="#252828" stroke="#006a6a"></path><path d="M225 90L186 101L232 170Z" fill="#222525" stroke="#006a6a"></path><path d="M128 260L247 207L232 170Z" fill="#101414" stroke="#006a6a"></path><path d="M178 352L120 444L215 453Z" fill="#2d3131" stroke="#006a6a"></path><path d="M208 500L286 600L327 562Z" fill="#222525" stroke="#006a6a"></path><path d="M327 562L286 600L401 600Z" fill="#1f2222" stroke="#006a6a"></path><path d="M900 336L900 264L856 315Z" fill="#2d3131" stroke="#006a6a"></path><path d="M856 315L900 264L841 199Z" fill="#191c1c" stroke="#006a6a"></path><path d="M900 469L804 358L785 488Z" fill="#2a2e2e" stroke="#006a6a"></path><path d="M900 264L900 237L841 199Z" fill="#1f2222" stroke="#006a6a"></path><path d="M145 136L128 260L232 170Z" fill="#1c1f1f" stroke="#006a6a"></path><path d="M186 101L145 136L232 170Z" fill="#161a1a" stroke="#006a6a"></path><path d="M60 70L145 136L186 101Z" fill="#1f2222" stroke="#006a6a"></path><path d="M145 136L114 261L128 260Z" fill="#2d3131" stroke="#006a6a"></path><path d="M128 260L114 261L134 310Z" fill="#191c1c" stroke="#006a6a"></path><path d="M85 409L120 444L178 352Z" fill="#2d3131" stroke="#006a6a"></path><path d="M280 0L236 0L225 90Z" fill="#252828" stroke="#006a6a"></path><path d="M900 237L900 128L841 199Z" fill="#161a1a" stroke="#006a6a"></path><path d="M849 111L864 0L710 37Z" fill="#1c1f1f" stroke="#006a6a"></path><path d="M900 497L900 469L817 521Z" fill="#101414" stroke="#006a6a"></path><path d="M817 521L900 469L785 488Z" fill="#141717" stroke="#006a6a"></path><path d="M85 409L178 352L134 310Z" fill="#1f2222" stroke="#006a6a"></path><path d="M208 500L212 600L286 600Z" fill="#252828" stroke="#006a6a"></path><path d="M162 600L212 600L208 500Z" fill="#2a2e2e" stroke="#006a6a"></path><path d="M855 600L900 497L817 521Z" fill="#161a1a" stroke="#006a6a"></path><path d="M56 275L85 409L134 310Z" fill="#161a1a" stroke="#006a6a"></path><path d="M120 444L114 499L208 500Z" fill="#141717" stroke="#006a6a"></path><path d="M236 0L178 0L225 90Z" fill="#1f2222" stroke="#006a6a"></path><path d="M62 146L56 275L114 261Z" fill="#1c1f1f" stroke="#006a6a"></path><path d="M85 409L104 475L120 444Z" fill="#272b2b" stroke="#006a6a"></path><path d="M900 128L900 54L849 111Z" fill="#191c1c" stroke="#006a6a"></path><path d="M104 475L114 499L120 444Z" fill="#101414" stroke="#006a6a"></path><path d="M900 54L864 0L849 111Z" fill="#2d3131" stroke="#006a6a"></path><path d="M726 600L855 600L817 521Z" fill="#161a1a" stroke="#006a6a"></path><path d="M62 146L114 261L145 136Z" fill="#2d3131" stroke="#006a6a"></path><path d="M114 261L56 275L134 310Z" fill="#272b2b" stroke="#006a6a"></path><path d="M114 499L162 600L208 500Z" fill="#191c1c" stroke="#006a6a"></path><path d="M60 70L62 146L145 136Z" fill="#1f2222" stroke="#006a6a"></path><path d="M900 54L900 0L864 0Z" fill="#1c1f1f" stroke="#006a6a"></path><path d="M855 600L900 600L900 497Z" fill="#2d3131" stroke="#006a6a"></path><path d="M178 0L60 70L186 101Z" fill="#252828" stroke="#006a6a"></path><path d="M0 215L0 315L56 275Z" fill="#2a2e2e" stroke="#006a6a"></path><path d="M104 475L62 530L114 499Z" fill="#1c1f1f" stroke="#006a6a"></path><path d="M114 499L72 600L162 600Z" fill="#141717" stroke="#006a6a"></path><path d="M0 439L62 530L104 475Z" fill="#1c1f1f" stroke="#006a6a"></path><path d="M0 439L104 475L85 409Z" fill="#272b2b" stroke="#006a6a"></path><path d="M56 275L0 315L85 409Z" fill="#141717" stroke="#006a6a"></path><path d="M0 215L56 275L62 146Z" fill="#2d3131" stroke="#006a6a"></path><path d="M0 123L0 215L62 146Z" fill="#222525" stroke="#006a6a"></path><path d="M0 315L0 400L85 409Z" fill="#141717" stroke="#006a6a"></path><path d="M178 0L68 0L60 70Z" fill="#2d3131" stroke="#006a6a"></path><path d="M60 70L0 123L62 146Z" fill="#101414" stroke="#006a6a"></path><path d="M0 400L0 439L85 409Z" fill="#161a1a" stroke="#006a6a"></path><path d="M62 530L72 600L114 499Z" fill="#222525" stroke="#006a6a"></path><path d="M0 544L72 600L62 530Z" fill="#101414" stroke="#006a6a"></path><path d="M0 67L0 123L60 70Z" fill="#141717" stroke="#006a6a"></path><path d="M0 0L0 67L60 70Z" fill="#2d3131" stroke="#006a6a"></path><path d="M0 439L0 544L62 530Z" fill="#222525" stroke="#006a6a"></path><path d="M68 0L0 0L60 70Z" fill="#141717" stroke="#006a6a"></path><path d="M0 544L0 600L72 600Z" fill="#252828" stroke="#006a6a"></path></g></svg>