<svg id="visual" viewBox="0 0 900 600" width="900" height="600" xmlns="http://www.w3.org/2000/svg" xmlns:xlink="http://www.w3.org/1999/xlink" version="1.1"><path d="M0 97L82 97L82 115L164 115L164 85L245 85L245 85L327 85L327 91L409 91L409 79L491 79L491 121L573 121L573 121L655 121L655 61L736 61L736 121L818 121L818 49L900 49L900 103L900 0L900 0L818 0L818 0L736 0L736 0L655 0L655 0L573 0L573 0L491 0L491 0L409 0L409 0L327 0L327 0L245 0L245 0L164 0L164 0L82 0L82 0L0 0Z" fill="#006a6a"></path><path d="M0 289L82 289L82 199L164 199L164 301L245 301L245 283L327 283L327 259L409 259L409 277L491 277L491 235L573 235L573 205L655 205L655 313L736 313L736 289L818 289L818 193L900 193L900 253L900 101L900 47L818 47L818 119L736 119L736 59L655 59L655 119L573 119L573 119L491 119L491 77L409 77L409 89L327 89L327 83L245 83L245 83L164 83L164 113L82 113L82 95L0 95Z" fill="#125353"></path><path d="M0 415L82 415L82 319L164 319L164 409L245 409L245 361L327 361L327 331L409 331L409 331L491 331L491 349L573 349L573 253L655 253L655 409L736 409L736 367L818 367L818 313L900 313L900 307L900 251L900 191L818 191L818 287L736 287L736 311L655 311L655 203L573 203L573 233L491 233L491 275L409 275L409 257L327 257L327 281L245 281L245 299L164 299L164 197L82 197L82 287L0 287Z" fill="#163d3d"></path><path d="M0 505L82 505L82 565L164 565L164 505L245 505L245 547L327 547L327 553L409 553L409 541L491 541L491 511L573 511L573 505L655 505L655 517L736 517L736 535L818 535L818 541L900 541L900 541L900 305L900 311L818 311L818 365L736 365L736 407L655 407L655 251L573 251L573 347L491 347L491 329L409 329L409 329L327 329L327 359L245 359L245 407L164 407L164 317L82 317L82 413L0 413Z" fill="#152828"></path><path d="M0 601L82 601L82 601L164 601L164 601L245 601L245 601L327 601L327 601L409 601L409 601L491 601L491 601L573 601L573 601L655 601L655 601L736 601L736 601L818 601L818 601L900 601L900 601L900 539L900 539L818 539L818 533L736 533L736 515L655 515L655 503L573 503L573 509L491 509L491 539L409 539L409 551L327 551L327 545L245 545L245 503L164 503L164 563L82 563L82 503L0 503Z" fill="#101414"></path></svg>