<svg id="visual" viewBox="0 0 900 600" width="900" height="600" xmlns="http://www.w3.org/2000/svg" xmlns:xlink="http://www.w3.org/1999/xlink" version="1.1"><g stroke-width="1" stroke-linejoin="bevel"><path d="M407 312L373 314L433 342Z" fill="#064949" stroke="#064949"></path><path d="M373 314L338 369L433 342Z" fill="#131f1f" stroke="#131f1f"></path><path d="M338 369L365 426L433 342Z" fill="#113637" stroke="#113637"></path><path d="M365 426L404 433L433 342Z" fill="#113637" stroke="#113637"></path><path d="M501 430L476 344L433 342Z" fill="#0b4243" stroke="#0b4243"></path><path d="M433 342L496 279L407 312Z" fill="#113637" stroke="#113637"></path><path d="M351 218L303 310L373 314Z" fill="#004f4f" stroke="#004f4f"></path><path d="M373 314L303 310L338 369Z" fill="#132525" stroke="#132525"></path><path d="M338 369L289 425L365 426Z" fill="#0e3c3d" stroke="#0e3c3d"></path><path d="M303 310L286 366L338 369Z" fill="#121a1a" stroke="#121a1a"></path><path d="M365 426L412 470L404 433Z" fill="#131f1f" stroke="#131f1f"></path><path d="M404 433L501 430L433 342Z" fill="#132a2b" stroke="#132a2b"></path><path d="M366 496L412 470L365 426Z" fill="#121a1a" stroke="#121a1a"></path><path d="M476 344L496 279L433 342Z" fill="#004f4f" stroke="#004f4f"></path><path d="M407 312L406 219L373 314Z" fill="#121a1a" stroke="#121a1a"></path><path d="M286 366L289 425L338 369Z" fill="#0b4243" stroke="#0b4243"></path><path d="M496 279L406 219L407 312Z" fill="#0b4243" stroke="#0b4243"></path><path d="M412 470L501 430L404 433Z" fill="#0b4243" stroke="#0b4243"></path><path d="M476 344L550 291L496 279Z" fill="#121a1a" stroke="#121a1a"></path><path d="M406 219L351 218L373 314Z" fill="#0b4243" stroke="#0b4243"></path><path d="M284 471L366 496L365 426Z" fill="#0b4243" stroke="#0b4243"></path><path d="M528 490L528 423L501 430Z" fill="#121a1a" stroke="#121a1a"></path><path d="M351 218L288 245L303 310Z" fill="#132525" stroke="#132525"></path><path d="M303 310L254 282L286 366Z" fill="#132525" stroke="#132525"></path><path d="M499 499L501 430L412 470Z" fill="#004f4f" stroke="#004f4f"></path><path d="M501 430L528 423L476 344Z" fill="#131f1f" stroke="#131f1f"></path><path d="M533 248L492 234L496 279Z" fill="#123031" stroke="#123031"></path><path d="M496 279L492 234L406 219Z" fill="#131f1f" stroke="#131f1f"></path><path d="M288 245L254 282L303 310Z" fill="#132525" stroke="#132525"></path><path d="M286 366L231 420L289 425Z" fill="#101414" stroke="#101414"></path><path d="M251 474L284 471L289 425Z" fill="#132525" stroke="#132525"></path><path d="M289 425L284 471L365 426Z" fill="#132525" stroke="#132525"></path><path d="M528 423L557 372L476 344Z" fill="#113637" stroke="#113637"></path><path d="M557 372L550 291L476 344Z" fill="#064949" stroke="#064949"></path><path d="M254 282L223 378L286 366Z" fill="#004f4f" stroke="#004f4f"></path><path d="M492 234L432 184L406 219Z" fill="#0b4243" stroke="#0b4243"></path><path d="M406 219L375 176L351 218Z" fill="#004f4f" stroke="#004f4f"></path><path d="M550 291L533 248L496 279Z" fill="#0e3c3d" stroke="#0e3c3d"></path><path d="M492 234L482 171L432 184Z" fill="#101414" stroke="#101414"></path><path d="M223 378L231 420L286 366Z" fill="#121a1a" stroke="#121a1a"></path><path d="M432 184L375 176L406 219Z" fill="#064949" stroke="#064949"></path><path d="M351 218L301 178L288 245Z" fill="#132a2b" stroke="#132a2b"></path><path d="M467 539L499 499L412 470Z" fill="#064949" stroke="#064949"></path><path d="M597 405L592 374L557 372Z" fill="#123031" stroke="#123031"></path><path d="M231 420L251 474L289 425Z" fill="#0e3c3d" stroke="#0e3c3d"></path><path d="M291 537L368 541L366 496Z" fill="#101414" stroke="#101414"></path><path d="M288 245L230 254L254 282Z" fill="#0e3c3d" stroke="#0e3c3d"></path><path d="M254 282L180 286L223 378Z" fill="#132a2b" stroke="#132a2b"></path><path d="M232 189L230 254L288 245Z" fill="#123031" stroke="#123031"></path><path d="M557 372L579 319L550 291Z" fill="#121a1a" stroke="#121a1a"></path><path d="M619 227L584 185L533 248Z" fill="#113637" stroke="#113637"></path><path d="M368 541L414 540L366 496Z" fill="#113637" stroke="#113637"></path><path d="M366 496L414 540L412 470Z" fill="#004f4f" stroke="#004f4f"></path><path d="M291 537L366 496L284 471Z" fill="#101414" stroke="#101414"></path><path d="M540 524L528 490L499 499Z" fill="#0e3c3d" stroke="#0e3c3d"></path><path d="M499 499L528 490L501 430Z" fill="#131f1f" stroke="#131f1f"></path><path d="M557 372L592 374L579 319Z" fill="#004f4f" stroke="#004f4f"></path><path d="M375 176L301 178L351 218Z" fill="#064949" stroke="#064949"></path><path d="M597 405L557 372L528 423Z" fill="#004f4f" stroke="#004f4f"></path><path d="M533 162L482 171L492 234Z" fill="#132a2b" stroke="#132a2b"></path><path d="M432 184L440 141L375 176Z" fill="#131f1f" stroke="#131f1f"></path><path d="M375 176L312 137L301 178Z" fill="#131f1f" stroke="#131f1f"></path><path d="M428 600L467 539L414 540Z" fill="#101414" stroke="#101414"></path><path d="M414 540L467 539L412 470Z" fill="#0e3c3d" stroke="#0e3c3d"></path><path d="M258 521L291 537L284 471Z" fill="#121a1a" stroke="#121a1a"></path><path d="M589 467L597 405L528 423Z" fill="#132a2b" stroke="#132a2b"></path><path d="M482 171L440 141L432 184Z" fill="#0e3c3d" stroke="#0e3c3d"></path><path d="M175 523L258 521L251 474Z" fill="#132525" stroke="#132525"></path><path d="M251 474L258 521L284 471Z" fill="#132a2b" stroke="#132a2b"></path><path d="M165 340L176 400L223 378Z" fill="#121a1a" stroke="#121a1a"></path><path d="M223 378L176 400L231 420Z" fill="#004f4f" stroke="#004f4f"></path><path d="M231 420L190 464L251 474Z" fill="#0e3c3d" stroke="#0e3c3d"></path><path d="M193 236L180 286L230 254Z" fill="#132a2b" stroke="#132a2b"></path><path d="M230 254L180 286L254 282Z" fill="#132a2b" stroke="#132a2b"></path><path d="M467 539L540 524L499 499Z" fill="#113637" stroke="#113637"></path><path d="M528 490L589 467L528 423Z" fill="#121a1a" stroke="#121a1a"></path><path d="M180 286L165 340L223 378Z" fill="#101414" stroke="#101414"></path><path d="M236 128L232 189L301 178Z" fill="#113637" stroke="#113637"></path><path d="M301 178L232 189L288 245Z" fill="#131f1f" stroke="#131f1f"></path><path d="M540 524L589 467L528 490Z" fill="#0e3c3d" stroke="#0e3c3d"></path><path d="M368 112L312 137L375 176Z" fill="#0b4243" stroke="#0b4243"></path><path d="M232 189L193 236L230 254Z" fill="#101414" stroke="#101414"></path><path d="M127 295L128 372L165 340Z" fill="#0b4243" stroke="#0b4243"></path><path d="M176 400L190 464L231 420Z" fill="#131f1f" stroke="#131f1f"></path><path d="M482 171L496 130L440 141Z" fill="#131f1f" stroke="#131f1f"></path><path d="M533 248L533 162L492 234Z" fill="#131f1f" stroke="#131f1f"></path><path d="M584 185L533 162L533 248Z" fill="#113637" stroke="#113637"></path><path d="M411 41L368 112L440 141Z" fill="#132525" stroke="#132525"></path><path d="M440 141L368 112L375 176Z" fill="#131f1f" stroke="#131f1f"></path><path d="M533 162L496 130L482 171Z" fill="#101414" stroke="#101414"></path><path d="M318 600L378 600L368 541Z" fill="#113637" stroke="#113637"></path><path d="M368 541L378 600L414 540Z" fill="#121a1a" stroke="#121a1a"></path><path d="M467 539L496 600L540 524Z" fill="#113637" stroke="#113637"></path><path d="M318 600L368 541L291 537Z" fill="#101414" stroke="#101414"></path><path d="M378 600L428 600L414 540Z" fill="#121a1a" stroke="#121a1a"></path><path d="M619 227L550 291L579 319Z" fill="#132a2b" stroke="#132a2b"></path><path d="M619 227L533 248L550 291Z" fill="#064949" stroke="#064949"></path><path d="M533 162L528 133L496 130Z" fill="#0b4243" stroke="#0b4243"></path><path d="M619 227L579 319L652 260Z" fill="#004f4f" stroke="#004f4f"></path><path d="M611 135L528 133L533 162Z" fill="#064949" stroke="#064949"></path><path d="M496 130L488 71L440 141Z" fill="#0b4243" stroke="#0b4243"></path><path d="M663 357L579 319L592 374Z" fill="#132525" stroke="#132525"></path><path d="M257 600L291 537L258 521Z" fill="#113637" stroke="#113637"></path><path d="M257 600L318 600L291 537Z" fill="#132a2b" stroke="#132a2b"></path><path d="M165 340L128 372L176 400Z" fill="#064949" stroke="#064949"></path><path d="M176 400L120 409L190 464Z" fill="#132a2b" stroke="#132a2b"></path><path d="M127 295L165 340L180 286Z" fill="#101414" stroke="#101414"></path><path d="M428 600L496 600L467 539Z" fill="#131f1f" stroke="#131f1f"></path><path d="M540 524L582 543L589 467Z" fill="#131f1f" stroke="#131f1f"></path><path d="M558 600L582 543L540 524Z" fill="#132a2b" stroke="#132a2b"></path><path d="M656 423L663 357L597 405Z" fill="#064949" stroke="#064949"></path><path d="M597 405L663 357L592 374Z" fill="#131f1f" stroke="#131f1f"></path><path d="M656 423L597 405L589 467Z" fill="#0b4243" stroke="#0b4243"></path><path d="M100 240L180 286L193 236Z" fill="#123031" stroke="#123031"></path><path d="M100 240L127 295L180 286Z" fill="#123031" stroke="#123031"></path><path d="M295 71L236 128L312 137Z" fill="#121a1a" stroke="#121a1a"></path><path d="M312 137L236 128L301 178Z" fill="#121a1a" stroke="#121a1a"></path><path d="M232 189L180 172L193 236Z" fill="#101414" stroke="#101414"></path><path d="M650 482L656 423L589 467Z" fill="#131f1f" stroke="#131f1f"></path><path d="M664 300L652 260L579 319Z" fill="#132525" stroke="#132525"></path><path d="M668 196L611 135L584 185Z" fill="#0e3c3d" stroke="#0e3c3d"></path><path d="M663 357L664 300L579 319Z" fill="#004f4f" stroke="#004f4f"></path><path d="M105 460L175 523L190 464Z" fill="#0b4243" stroke="#0b4243"></path><path d="M190 464L175 523L251 474Z" fill="#004f4f" stroke="#004f4f"></path><path d="M236 128L180 172L232 189Z" fill="#0e3c3d" stroke="#0e3c3d"></path><path d="M72 370L120 409L128 372Z" fill="#121a1a" stroke="#121a1a"></path><path d="M128 372L120 409L176 400Z" fill="#121a1a" stroke="#121a1a"></path><path d="M197 600L257 600L258 521Z" fill="#131f1f" stroke="#131f1f"></path><path d="M582 543L650 482L589 467Z" fill="#113637" stroke="#113637"></path><path d="M656 423L698 432L663 357Z" fill="#0e3c3d" stroke="#0e3c3d"></path><path d="M539 42L488 71L528 133Z" fill="#131f1f" stroke="#131f1f"></path><path d="M528 133L488 71L496 130Z" fill="#004f4f" stroke="#004f4f"></path><path d="M368 112L295 71L312 137Z" fill="#121a1a" stroke="#121a1a"></path><path d="M611 135L533 162L584 185Z" fill="#0b4243" stroke="#0b4243"></path><path d="M344 40L295 71L368 112Z" fill="#0e3c3d" stroke="#0e3c3d"></path><path d="M236 128L171 119L180 172Z" fill="#004f4f" stroke="#004f4f"></path><path d="M496 600L558 600L540 524Z" fill="#113637" stroke="#113637"></path><path d="M582 543L672 546L650 482Z" fill="#113637" stroke="#113637"></path><path d="M59 415L105 460L120 409Z" fill="#131f1f" stroke="#131f1f"></path><path d="M120 409L105 460L190 464Z" fill="#0b4243" stroke="#0b4243"></path><path d="M175 523L197 600L258 521Z" fill="#064949" stroke="#064949"></path><path d="M668 196L584 185L619 227Z" fill="#0b4243" stroke="#0b4243"></path><path d="M488 71L411 41L440 141Z" fill="#004f4f" stroke="#004f4f"></path><path d="M104 193L100 240L193 236Z" fill="#132a2b" stroke="#132a2b"></path><path d="M127 295L72 370L128 372Z" fill="#132a2b" stroke="#132a2b"></path><path d="M104 193L193 236L180 172Z" fill="#004f4f" stroke="#004f4f"></path><path d="M411 41L344 40L368 112Z" fill="#004f4f" stroke="#004f4f"></path><path d="M650 482L698 432L656 423Z" fill="#121a1a" stroke="#121a1a"></path><path d="M720 293L710 254L664 300Z" fill="#004f4f" stroke="#004f4f"></path><path d="M711 495L698 432L650 482Z" fill="#101414" stroke="#101414"></path><path d="M652 260L668 196L619 227Z" fill="#004f4f" stroke="#004f4f"></path><path d="M710 254L668 196L652 260Z" fill="#004f4f" stroke="#004f4f"></path><path d="M710 254L652 260L664 300Z" fill="#0b4243" stroke="#0b4243"></path><path d="M124 557L197 600L175 523Z" fill="#121a1a" stroke="#121a1a"></path><path d="M227 75L236 128L295 71Z" fill="#132a2b" stroke="#132a2b"></path><path d="M199 71L171 119L236 128Z" fill="#113637" stroke="#113637"></path><path d="M58 283L72 370L127 295Z" fill="#0e3c3d" stroke="#0e3c3d"></path><path d="M242 0L227 75L295 71Z" fill="#113637" stroke="#113637"></path><path d="M558 600L601 600L582 543Z" fill="#132525" stroke="#132525"></path><path d="M123 124L104 193L180 172Z" fill="#123031" stroke="#123031"></path><path d="M64 258L58 283L127 295Z" fill="#123031" stroke="#123031"></path><path d="M720 293L664 300L663 357Z" fill="#132525" stroke="#132525"></path><path d="M729 374L720 293L663 357Z" fill="#123031" stroke="#123031"></path><path d="M698 432L729 374L663 357Z" fill="#0e3c3d" stroke="#0e3c3d"></path><path d="M105 460L124 557L175 523Z" fill="#123031" stroke="#123031"></path><path d="M66 498L124 557L105 460Z" fill="#132a2b" stroke="#132a2b"></path><path d="M0 355L59 415L72 370Z" fill="#113637" stroke="#113637"></path><path d="M72 370L59 415L120 409Z" fill="#0b4243" stroke="#0b4243"></path><path d="M201 0L199 71L227 75Z" fill="#123031" stroke="#123031"></path><path d="M227 75L199 71L236 128Z" fill="#132525" stroke="#132525"></path><path d="M171 119L123 124L180 172Z" fill="#132525" stroke="#132525"></path><path d="M601 600L672 546L582 543Z" fill="#101414" stroke="#101414"></path><path d="M800 431L775 354L729 374Z" fill="#113637" stroke="#113637"></path><path d="M64 258L127 295L100 240Z" fill="#113637" stroke="#113637"></path><path d="M104 193L64 258L100 240Z" fill="#101414" stroke="#101414"></path><path d="M611 135L539 42L528 133Z" fill="#064949" stroke="#064949"></path><path d="M488 71L440 0L411 41Z" fill="#064949" stroke="#064949"></path><path d="M411 41L357 0L344 40Z" fill="#0e3c3d" stroke="#0e3c3d"></path><path d="M618 54L539 42L611 135Z" fill="#0b4243" stroke="#0b4243"></path><path d="M672 546L711 495L650 482Z" fill="#004f4f" stroke="#004f4f"></path><path d="M110 59L123 124L171 119Z" fill="#131f1f" stroke="#131f1f"></path><path d="M104 193L56 168L64 258Z" fill="#004f4f" stroke="#004f4f"></path><path d="M710 130L652 113L668 196Z" fill="#0e3c3d" stroke="#0e3c3d"></path><path d="M668 196L652 113L611 135Z" fill="#132525" stroke="#132525"></path><path d="M440 0L357 0L411 41Z" fill="#131f1f" stroke="#131f1f"></path><path d="M344 40L304 0L295 71Z" fill="#131f1f" stroke="#131f1f"></path><path d="M488 0L440 0L488 71Z" fill="#101414" stroke="#101414"></path><path d="M59 415L66 498L105 460Z" fill="#113637" stroke="#113637"></path><path d="M357 0L304 0L344 40Z" fill="#123031" stroke="#123031"></path><path d="M708 600L709 527L672 546Z" fill="#132a2b" stroke="#132a2b"></path><path d="M672 546L709 527L711 495Z" fill="#123031" stroke="#123031"></path><path d="M800 431L729 374L698 432Z" fill="#064949" stroke="#064949"></path><path d="M557 0L488 0L539 42Z" fill="#113637" stroke="#113637"></path><path d="M539 42L488 0L488 71Z" fill="#132a2b" stroke="#132a2b"></path><path d="M652 113L618 54L611 135Z" fill="#0e3c3d" stroke="#0e3c3d"></path><path d="M69 550L111 600L124 557Z" fill="#132525" stroke="#132525"></path><path d="M124 557L111 600L197 600Z" fill="#121a1a" stroke="#121a1a"></path><path d="M601 600L675 600L672 546Z" fill="#132525" stroke="#132525"></path><path d="M0 552L69 550L66 498Z" fill="#0e3c3d" stroke="#0e3c3d"></path><path d="M66 498L69 550L124 557Z" fill="#101414" stroke="#101414"></path><path d="M304 0L242 0L295 71Z" fill="#064949" stroke="#064949"></path><path d="M73 73L80 128L123 124Z" fill="#131f1f" stroke="#131f1f"></path><path d="M764 483L698 432L711 495Z" fill="#132a2b" stroke="#132a2b"></path><path d="M729 374L775 354L720 293Z" fill="#0e3c3d" stroke="#0e3c3d"></path><path d="M766 230L735 167L710 254Z" fill="#132525" stroke="#132525"></path><path d="M735 167L710 130L668 196Z" fill="#101414" stroke="#101414"></path><path d="M80 128L104 193L123 124Z" fill="#131f1f" stroke="#131f1f"></path><path d="M80 128L56 168L104 193Z" fill="#132a2b" stroke="#132a2b"></path><path d="M0 314L72 370L58 283Z" fill="#132a2b" stroke="#132a2b"></path><path d="M0 314L0 355L72 370Z" fill="#121a1a" stroke="#121a1a"></path><path d="M110 59L171 119L199 71Z" fill="#121a1a" stroke="#121a1a"></path><path d="M735 167L668 196L710 254Z" fill="#0b4243" stroke="#0b4243"></path><path d="M652 113L678 79L618 54Z" fill="#131f1f" stroke="#131f1f"></path><path d="M618 54L557 0L539 42Z" fill="#131f1f" stroke="#131f1f"></path><path d="M620 0L557 0L618 54Z" fill="#113637" stroke="#113637"></path><path d="M766 230L710 254L720 293Z" fill="#0b4243" stroke="#0b4243"></path><path d="M0 314L58 283L0 229Z" fill="#113637" stroke="#113637"></path><path d="M59 415L0 476L66 498Z" fill="#131f1f" stroke="#131f1f"></path><path d="M793 280L766 230L720 293Z" fill="#121a1a" stroke="#121a1a"></path><path d="M0 229L58 283L64 258Z" fill="#0b4243" stroke="#0b4243"></path><path d="M709 527L764 483L711 495Z" fill="#132525" stroke="#132525"></path><path d="M775 558L764 483L709 527Z" fill="#0e3c3d" stroke="#0e3c3d"></path><path d="M668 0L678 79L732 54Z" fill="#101414" stroke="#101414"></path><path d="M710 130L678 79L652 113Z" fill="#004f4f" stroke="#004f4f"></path><path d="M242 0L201 0L227 75Z" fill="#123031" stroke="#123031"></path><path d="M0 355L0 432L59 415Z" fill="#0e3c3d" stroke="#0e3c3d"></path><path d="M675 600L708 600L672 546Z" fill="#131f1f" stroke="#131f1f"></path><path d="M0 600L73 600L69 550Z" fill="#123031" stroke="#123031"></path><path d="M69 550L73 600L111 600Z" fill="#0b4243" stroke="#0b4243"></path><path d="M0 187L0 229L56 168Z" fill="#113637" stroke="#113637"></path><path d="M122 0L110 59L199 71Z" fill="#0b4243" stroke="#0b4243"></path><path d="M775 354L793 280L720 293Z" fill="#0e3c3d" stroke="#0e3c3d"></path><path d="M766 230L795 199L735 167Z" fill="#0e3c3d" stroke="#0e3c3d"></path><path d="M825 363L793 280L775 354Z" fill="#0e3c3d" stroke="#0e3c3d"></path><path d="M56 168L0 229L64 258Z" fill="#132a2b" stroke="#132a2b"></path><path d="M0 187L56 168L0 119Z" fill="#064949" stroke="#064949"></path><path d="M0 432L0 476L59 415Z" fill="#113637" stroke="#113637"></path><path d="M832 425L800 431L852 466Z" fill="#0e3c3d" stroke="#0e3c3d"></path><path d="M764 483L800 431L698 432Z" fill="#121a1a" stroke="#121a1a"></path><path d="M668 0L620 0L618 54Z" fill="#064949" stroke="#064949"></path><path d="M76 0L73 73L110 59Z" fill="#132525" stroke="#132525"></path><path d="M110 59L73 73L123 124Z" fill="#0e3c3d" stroke="#0e3c3d"></path><path d="M0 119L56 168L80 128Z" fill="#113637" stroke="#113637"></path><path d="M831 246L766 230L793 280Z" fill="#0b4243" stroke="#0b4243"></path><path d="M831 246L795 199L766 230Z" fill="#121a1a" stroke="#121a1a"></path><path d="M759 71L732 54L710 130Z" fill="#101414" stroke="#101414"></path><path d="M678 79L668 0L618 54Z" fill="#131f1f" stroke="#131f1f"></path><path d="M800 431L825 363L775 354Z" fill="#123031" stroke="#123031"></path><path d="M708 600L775 558L709 527Z" fill="#121a1a" stroke="#121a1a"></path><path d="M800 431L832 425L825 363Z" fill="#0e3c3d" stroke="#0e3c3d"></path><path d="M0 476L0 552L66 498Z" fill="#004f4f" stroke="#004f4f"></path><path d="M201 0L122 0L199 71Z" fill="#131f1f" stroke="#131f1f"></path><path d="M852 466L800 431L764 483Z" fill="#004f4f" stroke="#004f4f"></path><path d="M732 54L678 79L710 130Z" fill="#131f1f" stroke="#131f1f"></path><path d="M856 287L831 246L793 280Z" fill="#121a1a" stroke="#121a1a"></path><path d="M759 71L710 130L795 113Z" fill="#0b4243" stroke="#0b4243"></path><path d="M856 287L793 280L825 363Z" fill="#004f4f" stroke="#004f4f"></path><path d="M710 130L735 167L795 113Z" fill="#121a1a" stroke="#121a1a"></path><path d="M0 67L0 119L73 73Z" fill="#0e3c3d" stroke="#0e3c3d"></path><path d="M73 73L0 119L80 128Z" fill="#132525" stroke="#132525"></path><path d="M795 113L735 167L818 133Z" fill="#0b4243" stroke="#0b4243"></path><path d="M732 54L723 0L668 0Z" fill="#132525" stroke="#132525"></path><path d="M708 600L783 600L775 558Z" fill="#123031" stroke="#123031"></path><path d="M855 556L852 466L764 483Z" fill="#064949" stroke="#064949"></path><path d="M0 552L0 600L69 550Z" fill="#132525" stroke="#132525"></path><path d="M818 133L735 167L795 199Z" fill="#132525" stroke="#132525"></path><path d="M900 317L856 287L825 363Z" fill="#132525" stroke="#132525"></path><path d="M856 176L818 133L795 199Z" fill="#101414" stroke="#101414"></path><path d="M122 0L76 0L110 59Z" fill="#131f1f" stroke="#131f1f"></path><path d="M855 556L764 483L775 558Z" fill="#123031" stroke="#123031"></path><path d="M832 425L900 373L825 363Z" fill="#121a1a" stroke="#121a1a"></path><path d="M856 176L795 199L831 246Z" fill="#132a2b" stroke="#132a2b"></path><path d="M790 0L732 54L759 71Z" fill="#132525" stroke="#132525"></path><path d="M790 0L759 71L856 43Z" fill="#131f1f" stroke="#131f1f"></path><path d="M790 0L723 0L732 54Z" fill="#123031" stroke="#123031"></path><path d="M76 0L0 67L73 73Z" fill="#132a2b" stroke="#132a2b"></path><path d="M900 197L856 176L831 246Z" fill="#121a1a" stroke="#121a1a"></path><path d="M856 43L759 71L795 113Z" fill="#123031" stroke="#123031"></path><path d="M783 600L826 600L775 558Z" fill="#004f4f" stroke="#004f4f"></path><path d="M826 600L855 556L775 558Z" fill="#131f1f" stroke="#131f1f"></path><path d="M900 433L900 373L832 425Z" fill="#113637" stroke="#113637"></path><path d="M900 433L832 425L852 466Z" fill="#123031" stroke="#123031"></path><path d="M856 287L900 254L831 246Z" fill="#0e3c3d" stroke="#0e3c3d"></path><path d="M900 373L900 317L825 363Z" fill="#004f4f" stroke="#004f4f"></path><path d="M900 501L900 433L852 466Z" fill="#132a2b" stroke="#132a2b"></path><path d="M900 317L900 254L856 287Z" fill="#123031" stroke="#123031"></path><path d="M76 0L0 0L0 67Z" fill="#131f1f" stroke="#131f1f"></path><path d="M855 556L900 501L852 466Z" fill="#123031" stroke="#123031"></path><path d="M900 548L900 501L855 556Z" fill="#132a2b" stroke="#132a2b"></path><path d="M900 130L818 133L856 176Z" fill="#131f1f" stroke="#131f1f"></path><path d="M856 43L795 113L818 133Z" fill="#0e3c3d" stroke="#0e3c3d"></path><path d="M900 254L900 197L831 246Z" fill="#132525" stroke="#132525"></path><path d="M900 600L900 548L855 556Z" fill="#0e3c3d" stroke="#0e3c3d"></path><path d="M900 197L900 130L856 176Z" fill="#131f1f" stroke="#131f1f"></path><path d="M900 130L856 43L818 133Z" fill="#0e3c3d" stroke="#0e3c3d"></path><path d="M826 600L900 600L855 556Z" fill="#132a2b" stroke="#132a2b"></path><path d="M900 0L839 0L856 43Z" fill="#121a1a" stroke="#121a1a"></path><path d="M856 43L839 0L790 0Z" fill="#0e3c3d" stroke="#0e3c3d"></path><path d="M900 130L900 59L856 43Z" fill="#004f4f" stroke="#004f4f"></path><path d="M900 59L900 0L856 43Z" fill="#131f1f" stroke="#131f1f"></path></g></svg>