<svg width="400" height="400" viewBox="0 0 400 400" fill="none" xmlns="http://www.w3.org/2000/svg">
<rect width="400" height="400" fill="#101414"/>
<path d="M115.167 119.417C109.389 116.75 104.694 112.722 101.083 107.333C97.4722 101.944 95.6667 95.8611 95.6667 89.0833C95.6667 87.6389 95.7361 86.2222 95.875 84.8333C96.0139 83.4444 96.25 82.0833 96.5833 80.75L92.75 83L89.4167 77.25L105.333 68.0833L114.5 83.9167L108.667 87.25L104.167 79.4167C103.556 80.9167 103.097 82.4722 102.792 84.0833C102.486 85.6944 102.333 87.3611 102.333 89.0833C102.333 94.4722 103.806 99.375 106.75 103.792C109.694 108.208 113.611 111.472 118.5 113.583L115.167 119.417ZM140.667 79V72.3333H149.75C147.194 69.1667 144.111 66.7083 140.5 64.9583C136.889 63.2083 133.056 62.3333 129 62.3333C125.944 62.3333 123.056 62.8056 120.333 63.75C117.611 64.6944 115.111 66.0278 112.833 67.75L109.5 61.9167C112.278 59.9722 115.306 58.4444 118.583 57.3333C121.861 56.2222 125.333 55.6667 129 55.6667C133.389 55.6667 137.583 56.4861 141.583 58.125C145.583 59.7639 149.167 62.1389 152.333 65.25V60.6667H159V79H140.667ZM138.5 129L122.583 119.833L131.75 104L137.5 107.333L132.75 115.5C139.306 114.556 144.764 111.583 149.125 106.583C153.486 101.583 155.667 95.7222 155.667 89C155.667 88.3889 155.653 87.8194 155.625 87.2917C155.597 86.7639 155.528 86.2222 155.417 85.6667H162.167C162.222 86.2222 162.264 86.7639 162.292 87.2917C162.319 87.8194 162.333 88.3889 162.333 89C162.333 96.5 160.097 103.208 155.625 109.125C151.153 115.042 145.333 119.028 138.167 121.083L141.833 123.25L138.5 129Z" fill="#CCE8E7" fill-opacity="0.3"/>
<path d="M210.417 226.833C209.271 226.833 208.29 226.425 207.474 225.609C206.658 224.793 206.25 223.813 206.25 222.667V193.5C206.25 192.354 206.658 191.373 207.474 190.557C208.29 189.741 209.271 189.333 210.417 189.333H212.5V185.167H216.667V189.333H233.333V185.167H237.5V189.333H239.583C240.729 189.333 241.71 189.741 242.526 190.557C243.342 191.373 243.75 192.354 243.75 193.5V222.667C243.75 223.813 243.342 224.793 242.526 225.609C241.71 226.425 240.729 226.833 239.583 226.833H210.417ZM210.417 222.667H239.583V201.833H210.417V222.667ZM210.417 197.667H239.583V193.5H210.417V197.667ZM214.583 210.167V206H235.417V210.167H214.583ZM214.583 218.5V214.333H229.167V218.5H214.583Z" fill="#CCE8E7" fill-opacity="0.3"/>
<path d="M99.0417 303.104L102.896 306.958L125.5 284.354L121.646 280.5L99.0417 303.104ZM68.8333 337.167H72.6875L96.9583 312.896L93.1042 309.042L68.8333 333.312V337.167ZM105.812 315.812L90.1875 300.187L107.583 282.792L104.562 279.771L81.75 302.583L75.9167 296.75L98.625 273.937C100.292 272.271 102.253 271.437 104.51 271.437C106.767 271.437 108.729 272.271 110.396 273.937L113.417 276.958L118.625 271.75C119.458 270.917 120.448 270.5 121.594 270.5C122.74 270.5 123.729 270.917 124.562 271.75L134.25 281.437C135.083 282.271 135.5 283.26 135.5 284.406C135.5 285.552 135.083 286.542 134.25 287.375L105.812 315.812ZM76.125 345.5H60.5V329.875L90.1875 300.187L105.812 315.812L76.125 345.5Z" fill="#CCE8E7" fill-opacity="0.3"/>
<path d="M300 298C299.083 298 298.299 297.674 297.646 297.021C296.993 296.368 296.667 295.583 296.667 294.667C296.667 293.75 296.993 292.965 297.646 292.313C298.299 291.66 299.083 291.333 300 291.333C300.917 291.333 301.701 291.66 302.354 292.313C303.007 292.965 303.333 293.75 303.333 294.667C303.333 295.583 303.007 296.368 302.354 297.021C301.701 297.674 300.917 298 300 298ZM295 324.667V303H285V299.667H315V303H305V324.667H301.667V314.667H298.333V324.667H295Z" fill="#CCE8E7" fill-opacity="0.3"/>
<path d="M320 116.667C316.139 115.694 312.951 113.479 310.438 110.021C307.924 106.563 306.667 102.722 306.667 98.5V88.3333L320 83.3333L333.333 88.3333V98.5C333.333 102.722 332.076 106.563 329.563 110.021C327.049 113.479 323.861 115.694 320 116.667ZM320 113.167C322.694 112.333 324.944 110.688 326.75 108.229C328.556 105.771 329.611 103.028 329.917 100H320V86.875L310 90.625V99.25C310 99.4444 310.028 99.6944 310.083 100H320V113.167Z" fill="#CCE8E7" fill-opacity="0.3"/>
</svg>
